<?xml version="1.0" encoding="UTF-8"?>
<svg version="1.1" xmlns="http://www.w3.org/2000/svg" width="2000" height="2000">
<path d="M0 0 C0 61.71 0 123.42 0 187 C21.32399414 186.98952637 42.64798828 186.97905273 64.61816406 186.96826172 C78.8564656 186.9615625 93.09476709 186.95489705 107.33306885 186.94869995 C108.23757982 186.94830528 109.1420908 186.94791062 110.0740112 186.94750399 C140.52116223 186.93425475 170.96831357 186.92375299 201.41546631 186.91531372 C202.40908433 186.91503761 203.40270235 186.91476149 204.42643001 186.91447701 C226.02025285 186.90849124 247.61407579 186.90295087 269.20789887 186.89786934 C279.79745343 186.89537466 290.38700797 186.89278155 300.9765625 186.89013672 C302.03035233 186.8898752 303.08414217 186.88961368 304.16986502 186.88934424 C338.32826867 186.88082104 372.48666569 186.86579804 406.64506533 186.84740556 C441.74627877 186.82853974 476.84748856 186.81622896 511.94870699 186.81217002 C516.90613009 186.81159371 521.86355318 186.81094243 526.82097626 186.81024551 C527.79667142 186.81011067 528.77236658 186.80997582 529.77762827 186.80983689 C545.48572424 186.80747315 561.19380889 186.7981962 576.90190024 186.78633593 C592.69255452 186.77456079 608.48319756 186.77006421 624.27385607 186.77299725 C633.6561687 186.77451876 643.03844025 186.7704596 652.42074546 186.75840491 C658.69004559 186.75090005 664.95931884 186.75067629 671.22862083 186.75633637 C674.79954102 186.75935293 678.37038358 186.75923843 681.94129542 186.75023364 C685.79341906 186.74059377 689.64543183 186.74653228 693.49756241 186.75390434 C694.59870613 186.74865032 695.69984984 186.74339629 696.83436155 186.73798305 C719.48959305 186.83599057 739.30756077 195.05657739 755.703125 210.6484375 C762.16551326 217.26469214 767.3719128 224.1511052 771.8125 232.25 C772.17351807 232.89195312 772.53453613 233.53390625 772.90649414 234.1953125 C779.92247047 247.60441995 780.58265758 261.15965237 780.50615788 275.9299984 C780.51064117 277.92234269 780.5168738 279.91468367 780.52468321 281.90701771 C780.54104042 287.3691017 780.5326289 292.83090563 780.52007158 298.29298924 C780.51080963 304.24022535 780.52475836 310.18741525 780.53571075 316.13464224 C780.55168751 326.55382949 780.55292961 336.9729535 780.54411316 347.39214516 C780.53472213 358.56734785 780.53404221 369.74250078 780.54389763 380.91770363 C780.5445148 381.62456716 780.54513197 382.33143069 780.54576784 383.05971433 C780.54830941 385.93884809 780.55091123 388.81798178 780.55358986 391.69711542 C780.58073131 420.89891951 780.58219021 450.10068547 780.57363184 479.30249836 C780.57245882 483.33524847 780.57132568 487.36799859 780.57023358 491.40074873 C780.57001644 492.20178271 780.5697993 493.00281668 780.56957559 493.82812442 C780.56494032 511.59059247 780.56836905 529.35305625 780.57350009 547.11552382 C780.57420243 549.54746024 780.57488742 551.97939666 780.57556724 554.41133309 C780.5773927 560.93073811 780.57923827 567.45014313 780.58112001 573.96954814 C780.58634425 592.19373165 780.59015669 610.41791532 780.59282589 628.64209938 C780.59294744 629.47196538 780.59306898 630.30183137 780.59319421 631.15684482 C780.59695743 657.59722227 780.59436839 684.03759528 780.5875864 710.47797203 C780.58736785 711.33544849 780.58714929 712.19292494 780.58692412 713.07638553 C780.58447897 722.63789358 780.58190907 732.1994016 780.57928873 741.7609096 C780.57905219 742.62415311 780.57881565 743.48739662 780.57857194 744.37679902 C780.57761456 747.86781839 780.57665701 751.35883775 780.57569179 754.84985712 C780.560444 810.06952023 780.56843732 865.28913148 780.59692383 920.50878906 C780.60408855 934.42390624 780.61119122 948.33902345 780.61790562 962.25414085 C780.61831984 963.11097444 780.61873405 963.96780802 780.61916082 964.85060626 C780.63184631 991.26184272 780.63835262 1017.67307483 780.63831234 1044.08431435 C780.63831154 1044.91359643 780.63831074 1045.74287851 780.63830991 1046.59729035 C780.63822571 1064.80252171 780.63658585 1083.00775268 780.63353152 1101.21298377 C780.63244763 1107.72716031 780.63145634 1114.24133687 780.63050066 1120.75551343 C780.63026058 1122.37603719 780.63001418 1123.99656096 780.62976144 1125.61708472 C780.62576953 1151.42734389 780.63574427 1177.2375736 780.65246569 1203.04782689 C780.66963922 1229.76733913 780.66815594 1256.4867932 780.64555968 1283.20630215 C780.6432032 1286.07736613 780.6409263 1288.94843016 780.63871193 1291.81949425 C780.63816122 1292.52408953 780.63761051 1293.22868482 780.63704312 1293.95463147 C780.62878292 1305.09739798 780.63723603 1316.24008593 780.65269013 1327.38284213 C780.66754223 1338.34767432 780.66403015 1349.3123956 780.64245573 1360.27721969 C780.63142962 1366.13911923 780.62824503 1372.00072986 780.64713103 1377.86261587 C780.66416683 1383.20139976 780.65796053 1388.5396462 780.63366519 1393.87839739 C780.62894469 1395.79185137 780.63248499 1397.70534946 780.64558421 1399.61876443 C780.78814589 1422.00471173 774.69686621 1439.78799999 760 1457 C759.39027344 1457.80824219 758.78054688 1458.61648438 758.15234375 1459.44921875 C745.54831752 1474.38647669 725.06357782 1483.5003856 706 1486 C702.07857137 1486.14587437 698.15959841 1486.13227667 694.23584938 1486.12304783 C692.43747705 1486.1247786 692.43747705 1486.1247786 690.60277396 1486.12654433 C687.26826922 1486.1287385 683.93382187 1486.12643894 680.5993226 1486.12226619 C676.97425441 1486.11883176 673.3491893 1486.12120284 669.7241205 1486.12284368 C663.36865228 1486.124918 657.01319342 1486.12327265 650.65772629 1486.11920547 C641.20735483 1486.1131745 631.75698928 1486.1128693 622.30661624 1486.11374746 C606.41017508 1486.11506195 590.51373808 1486.11171773 574.61729813 1486.10573006 C558.87494511 1486.0998156 543.13259383 1486.09596463 527.39023972 1486.09487724 C526.41189133 1486.0948085 525.43354294 1486.09473976 524.42554763 1486.09466894 C519.45712967 1486.09433061 514.48871172 1486.09402923 509.52029376 1486.09374207 C474.31740169 1486.09164095 439.11451189 1486.08490161 403.91162109 1486.07543945 C369.7097983 1486.06625697 335.50797612 1486.0591724 301.30615234 1486.05493164 C300.25213803 1486.05480011 299.19812371 1486.05466859 298.11216957 1486.05453308 C287.52744694 1486.05321457 276.94272432 1486.05193875 266.35800168 1486.05069422 C244.79517614 1486.04815792 223.23235063 1486.04533667 201.66952515 1486.04234314 C200.18234799 1486.0421372 200.18234799 1486.0421372 198.66512684 1486.04192711 C168.27240729 1486.03770352 137.87968812 1486.03227202 107.48696899 1486.02565002 C106.62398637 1486.02546247 105.76100374 1486.02527491 104.87187013 1486.02508167 C69.91457991 1486.01746586 34.95728999 1486.00857229 0 1486 C0 1561.57 0 1637.14 0 1715 C-8.99894167 1715 -8.99894167 1715 -13.44238281 1714.1171875 C-14.44260468 1713.92247864 -15.44282654 1713.72776978 -16.47335815 1713.52716064 C-18.07209274 1713.20434113 -18.07209274 1713.20434113 -19.703125 1712.875 C-20.8376712 1712.65253601 -21.97221741 1712.43007202 -23.1411438 1712.2008667 C-25.57769303 1711.72249707 -28.01359997 1711.24084639 -30.44891357 1710.75622559 C-36.8978358 1709.47321346 -43.35142881 1708.21411179 -49.8046875 1706.953125 C-50.45333897 1706.8260743 -51.10199043 1706.69902359 -51.770298 1706.56812286 C-63.95227363 1704.18241497 -76.15571821 1701.93524546 -88.375 1699.75 C-102.04460566 1697.30054736 -115.67324334 1694.70726698 -129.28112793 1691.93588257 C-139.7037438 1689.81630815 -150.14444088 1687.87309899 -160.625 1686.0625 C-173.0953156 1683.90750869 -185.52139251 1681.5729508 -197.9375 1679.125 C-212.0697174 1676.34040781 -226.21205669 1673.62409618 -240.375 1671 C-241.70591675 1670.75327042 -241.70591675 1670.75327042 -243.0637207 1670.5015564 C-248.46732433 1669.50023341 -253.87137139 1668.50132086 -259.27557373 1667.50323486 C-267.49683595 1665.98466715 -275.71752624 1664.4630269 -283.9375 1662.9375 C-284.83547302 1662.77088867 -285.73344604 1662.60427734 -286.65863037 1662.43261719 C-299.51478533 1660.04503313 -312.35524403 1657.58558202 -325.18719482 1655.07147217 C-337.46657479 1652.66740242 -349.7599679 1650.34504136 -362.0625 1648.0625 C-362.95945587 1647.89605988 -363.85641174 1647.72961975 -364.7805481 1647.55813599 C-371.18664039 1646.36997229 -377.59326086 1645.18467013 -384 1644 C-391.31286133 1642.64777881 -398.62548164 1641.29427285 -405.9375 1639.9375 C-406.83335815 1639.77131165 -407.72921631 1639.60512329 -408.65222168 1639.43389893 C-421.6262431 1637.02482294 -434.58401686 1634.54111836 -447.53317261 1632.0020752 C-459.44817602 1629.66749043 -471.38047162 1627.44247454 -483.32479858 1625.2633667 C-498.89311524 1622.41999155 -514.43040906 1619.42293016 -529.96774292 1616.41546631 C-546.22071408 1613.27227651 -562.49126041 1610.24956898 -578.78463745 1607.32366943 C-592.65882669 1604.8290976 -606.49339422 1602.17571129 -620.30297852 1599.3449707 C-626.77400033 1598.02142979 -633.24963788 1596.75697607 -639.7578125 1595.62890625 C-650.82919977 1593.709707 -661.86043848 1591.57824402 -672.89761353 1589.47277832 C-691.02676926 1586.01532364 -709.15828462 1582.57359079 -727.3125 1579.25 C-749.31570535 1575.21889192 -771.29356609 1571.05765975 -793.26171875 1566.83984375 C-812.41654456 1563.16240068 -831.57298937 1559.49775362 -850.75 1555.9375 C-852.06537247 1555.69329315 -852.06537247 1555.69329315 -853.40731812 1555.44415283 C-860.51259898 1554.12563363 -867.6184804 1552.81036371 -874.72454834 1551.49609375 C-881.12917364 1550.31155485 -887.53355753 1549.12572536 -893.9375 1547.9375 C-894.83601685 1547.77079803 -895.73453369 1547.60409607 -896.66027832 1547.43234253 C-909.51016925 1545.04590525 -922.34473469 1542.58927652 -935.17007446 1540.07449341 C-947.80771757 1537.59801019 -960.46251888 1535.22096645 -973.125 1532.875 C-998.41518053 1528.18617827 -998.41518053 1528.18617827 -1009.5625 1526.0625 C-1010.62033691 1525.86317871 -1011.67817383 1525.66385742 -1012.76806641 1525.45849609 C-1013.71214355 1525.27754395 -1014.6562207 1525.0965918 -1015.62890625 1524.91015625 C-1016.8365564 1524.68017944 -1016.8365564 1524.68017944 -1018.06860352 1524.44555664 C-1020 1524 -1020 1524 -1022 1523 C-1022 1083.77 -1022 644.54 -1022 192 C-990.96782842 185.79356568 -990.96782842 185.79356568 -977.625 183.1875 C-976.34305756 182.93696365 -976.34305756 182.93696365 -975.03521729 182.68136597 C-960.77576542 179.89798899 -946.49951924 177.21245895 -932.21331787 174.57022095 C-917.71584296 171.88843786 -903.22956163 169.15188824 -888.75 166.375 C-887.75826782 166.18485321 -886.76653564 165.99470642 -885.74475098 165.79879761 C-876.07521124 163.94396439 -866.40709301 162.08196301 -856.7421875 160.203125 C-855.68336365 159.99745407 -855.68336365 159.99745407 -854.60314941 159.78762817 C-851.44300233 159.17362082 -848.28318607 158.55801973 -845.12402344 157.93896484 C-839.21205207 156.78686618 -833.29337479 155.69238267 -827.359375 154.66015625 C-816.34704874 152.73972524 -805.371465 150.62422795 -794.39105225 148.53045654 C-787.92271346 147.29733872 -781.4535894 146.06835853 -774.984375 144.83984375 C-773.69477875 144.59494202 -772.4051825 144.35004028 -771.07650757 144.09771729 C-760.01388744 141.9988155 -748.94616237 139.9283115 -737.875 137.875 C-736.15413231 137.5556738 -734.43326642 137.23633785 -732.71240234 136.91699219 C-730.12727441 136.43729503 -727.5421455 135.95760322 -724.95700073 135.47799683 C-687.53133933 128.53208385 -650.12702763 121.47107016 -612.76171875 114.20703125 C-612.05460251 114.06967056 -611.34748627 113.93230988 -610.61894226 113.79078674 C-607.45312588 113.17563605 -604.28763986 112.55889199 -601.12280273 111.9387207 C-595.21123694 110.78671217 -589.29296564 109.6923115 -583.359375 108.66015625 C-572.34704874 106.73972524 -561.371465 104.62422795 -550.39105225 102.53045654 C-543.92271346 101.29733872 -537.4535894 100.06835853 -530.984375 98.83984375 C-529.04998062 98.47249115 -529.04998062 98.47249115 -527.07650757 98.09771729 C-516.01388744 95.9988155 -504.94616237 93.9283115 -493.875 91.875 C-492.15413231 91.5556738 -490.43326642 91.23633785 -488.71240234 90.91699219 C-486.12727441 90.43729503 -483.5421455 89.95760322 -480.95700073 89.47799683 C-453.70716757 84.42063878 -426.47011353 79.29740421 -399.25170898 74.07354736 C-356.71949591 65.91062726 -314.16420363 57.87401116 -271.578125 49.99707031 C-266.0726536 48.97863059 -260.56743499 47.95883523 -255.0625 46.9375 C-253.71322922 46.68717514 -253.71322922 46.68717514 -252.33670044 46.43179321 C-239.48042215 44.04416348 -226.63982553 41.58471559 -213.80776978 39.07046509 C-201.63429718 36.68699102 -189.44677172 34.38611083 -177.25 32.125 C-176.35744507 31.95950653 -175.46489014 31.79401306 -174.54528809 31.62350464 C-170.87091182 30.94235513 -167.1964972 30.26141297 -163.52203369 29.58073425 C-152.76240787 27.58685225 -142.00568466 25.57752456 -131.25 23.5625 C-130.2522757 23.37561615 -129.25455139 23.1887323 -128.22659302 22.9961853 C-112.23428454 19.99886608 -96.25237526 16.94911802 -80.27420044 13.87744141 C-63.78651328 10.70879512 -47.28601775 7.61301578 -30.77612305 4.56225586 C-29.92806595 4.40533768 -29.08000885 4.24841949 -28.20625305 4.08674622 C-26.58439467 3.78682042 -24.96240025 3.48762911 -23.34025574 3.18925476 C-18.60627744 2.31437295 -13.89116153 1.38164088 -9.1965332 0.31225586 C-6.15978699 -0.11944342 -3.0672776 0 0 0 Z " fill="#D14424" transform="translate(1125,142)"/>
<path d="M0 0 C233.64 0 467.28 0 708 0 C708 391.38 708 782.76 708 1186 C474.36 1186 240.72 1186 0 1186 C0 1137.49 0 1088.98 0 1039 C187.11 1039 374.22 1039 567 1039 C567 1013.26 567 987.52 567 961 C379.89 961 192.78 961 0 961 C0 925.03 0 889.06 0 852 C187.11 852 374.22 852 567 852 C567 826.26 567 800.52 567 774 C379.89 774 192.78 774 0 774 C0 706.68 0 639.36 0 570 C3.24038413 573.24038413 5.79049239 576.28418058 8.5 579.9375 C13.88781473 587.0609391 19.80823259 593.57213088 26 600 C26.75482666 600.78769775 26.75482666 600.78769775 27.52490234 601.59130859 C42.92572727 617.5865687 60.88997097 631.06685172 80.21728516 641.99121094 C81.94908464 642.97118841 83.66814787 643.97356727 85.38671875 644.9765625 C104.12178468 655.65650649 125.09800642 662.94520607 146 668 C147.56693604 668.38526855 147.56693604 668.38526855 149.16552734 668.77832031 C190.85755273 678.5300356 237.51921995 675.3584953 278 662 C278.84594727 661.72929688 279.69189453 661.45859375 280.56347656 661.1796875 C292.27827341 657.41405997 303.18272205 652.84830227 314 647 C314.71897461 646.61972656 315.43794922 646.23945312 316.17871094 645.84765625 C338.36029041 634.10729748 357.83255907 619.27304384 376 602 C376.65226562 601.38898437 377.30453125 600.77796875 377.9765625 600.1484375 C383.13693978 595.17656716 387.52626213 589.58440543 392 584 C392.66 583.20722656 393.32 582.41445313 394 581.59765625 C399.44203957 575.00357201 404.17398989 568.01627142 408.80810547 560.84326172 C409.89545443 559.16167945 410.99587576 557.48856845 412.09765625 555.81640625 C419.83743548 543.73742674 425.90455726 530.61322098 430.83203125 517.15234375 C431.4879828 515.3819327 432.16235823 513.61725754 432.8996582 511.87915039 C435.8252076 504.92753807 437.77152034 497.88104637 439.5625 490.5625 C439.86696045 489.32040771 440.1714209 488.07831543 440.48510742 486.79858398 C445.21235664 467.13123898 446.58518736 448.51478322 448 428 C366.82 428 285.64 428 202 428 C202 346.82 202 265.64 202 182 C179.31252885 182.97934066 179.31252885 182.97934066 157.20556641 186.48876953 C154.49315356 187.11748245 151.76892562 187.67901668 149.04296875 188.24609375 C101.73340806 198.31951873 61.85733858 221.95358597 27 255 C26.24589844 255.7115625 25.49179688 256.423125 24.71484375 257.15625 C16.4234974 265.2003395 9.55509109 274.46379047 2.75 283.76171875 C1.88375 284.86966797 1.88375 284.86966797 1 286 C0.67 286 0.34 286 0 286 C0 191.62 0 97.24 0 0 Z " fill="#FEFEFE" transform="translate(1125,385)"/>
<path d="M0 0 C1.44960617 -0.00401825 1.44960617 -0.00401825 2.92849731 -0.00811768 C5.71278632 -0.01397454 8.49696027 -0.01224087 11.28125 -0.0078125 C12.1210289 -0.00978638 12.9608078 -0.01176025 13.82603455 -0.01379395 C18.172301 0.00326577 22.21402465 0.31409666 26.5 1.125 C28.74983306 1.17487315 30.99987702 1.21560947 33.25 1.25 C52.80148214 2.14924172 72.04789972 9.73144805 89.5 18.125 C91.10875 18.89457031 91.10875 18.89457031 92.75 19.6796875 C124.11197164 35.81651593 146.47058395 65.45194081 157.140625 98.6171875 C158.52416807 103.11463983 159.78194986 107.6304015 160.796875 112.2265625 C161.42089033 114.79889235 162.17491977 117.26446826 162.9765625 119.78515625 C164.59484763 125.12192744 165.43399388 130.4133772 166.125 135.9375 C166.24617188 136.83275391 166.36734375 137.72800781 166.4921875 138.65039062 C168.25447703 152.10700358 168.77181321 165.5073659 168.8125 179.0625 C168.81545074 179.93174103 168.81840149 180.80098206 168.82144165 181.69656372 C168.83554333 200.08999456 168.46932936 219.7978731 162.1628418 237.26245117 C161.33899468 239.57741606 160.82044977 241.9102413 160.3125 244.3125 C154.77419323 266.6070104 144.8819091 288.13971147 130.5 306.125 C129.96503906 306.84816406 129.43007813 307.57132813 128.87890625 308.31640625 C107.00331349 337.64124163 75.42971 360.11656746 40.5 371.125 C39.283125 371.52332031 38.06625 371.92164063 36.8125 372.33203125 C12.4735703 379.92891151 -12.42094881 380.73082371 -37.66522217 380.45794678 C-40.64139 380.4304087 -43.61748011 380.42207706 -46.59375572 380.41438007 C-50.21619119 380.40433066 -53.83855337 380.38463393 -57.4609375 380.36328125 C-58.76638519 380.35589432 -60.07183289 380.34850739 -61.4168396 380.34089661 C-62.66679718 380.32806137 -63.91675476 380.31522614 -65.20458984 380.30200195 C-66.27929535 380.29215775 -67.35400085 380.28231354 -68.46127319 380.27217102 C-74.48233263 380.05276389 -80.49025577 379.55426744 -86.5 379.125 C-86.5 444.135 -86.5 509.145 -86.5 576.125 C-117.64086479 574.97163464 -117.64086479 574.97163464 -131.45703125 573.96875 C-132.99588368 573.86016314 -134.53475865 573.75189535 -136.07365417 573.6439209 C-139.22989369 573.42152046 -142.38590043 573.19615406 -145.54174805 572.96826172 C-149.57227234 572.67734896 -153.60324233 572.39321999 -157.63438892 572.11107635 C-160.78213737 571.89023164 -163.9296759 571.66650854 -167.07715416 571.44184875 C-168.56537255 571.33585361 -170.0536442 571.23060328 -171.54197121 571.12614441 C-173.60477518 570.98081762 -175.6672753 570.83174615 -177.72973633 570.68164062 C-179.47955559 570.55625916 -179.47955559 570.55625916 -181.26472473 570.42834473 C-184.36007859 570.13811926 -187.43337025 569.63610496 -190.5 569.125 C-190.5 385.315 -190.5 201.505 -190.5 12.125 C-187.39255422 11.34813856 -184.86577228 10.92261414 -181.71801758 10.70776367 C-180.27943893 10.60689201 -180.27943893 10.60689201 -178.8117981 10.50398254 C-177.24400101 10.39953072 -177.24400101 10.39953072 -175.64453125 10.29296875 C-174.53955292 10.21644577 -173.43457458 10.13992279 -172.29611206 10.06108093 C-168.63512582 9.80826932 -164.97381969 9.56043156 -161.3125 9.3125 C-158.75428712 9.13660865 -156.1961006 8.9603336 -153.63793945 8.78369141 C-148.9733896 8.46186709 -144.30877802 8.14098608 -139.64405727 7.82165146 C-127.35861637 6.98042354 -115.0747099 6.11748755 -102.79086304 5.25332642 C-99.30763353 5.00844572 -95.82435792 4.76423281 -92.34106445 4.52026367 C-83.21550971 3.88073996 -74.09006788 3.23999633 -64.96557617 2.58544922 C-63.08519402 2.45059616 -63.08519402 2.45059616 -61.16682434 2.3130188 C-58.77176156 2.14101379 -56.3767296 1.96857873 -53.98173523 1.79562378 C-35.96649401 0.50113232 -18.06003501 0.02866997 0 0 Z " fill="#FEFEFE" transform="translate(616.5,697.875)"/>
<path d="M0 0 C4.09112608 -0.03316532 8.18221673 -0.05282746 12.2734375 -0.0703125 C13.41611084 -0.07973877 14.55878418 -0.08916504 15.73608398 -0.09887695 C60.40324019 -0.24148228 107.94924857 16.90713708 144 43 C144.96550781 43.69351563 145.93101562 44.38703125 146.92578125 45.1015625 C161.94115234 56.12451974 177.1959693 68.52744098 189 83 C189.96167058 84.1385017 190.9239741 85.27646891 191.88671875 86.4140625 C213.14960967 111.78324497 228.85458203 140.52336943 239 172 C239.37769531 173.12921875 239.75539063 174.2584375 240.14453125 175.421875 C247.10033409 197.70261399 250.03959267 221.71218748 250 245 C227.39588222 245.17348691 204.79171467 245.33965158 182.1875 245.5 C180.93141843 245.50892281 180.93141843 245.50892281 179.64996147 245.51802588 C134.1830613 245.84058215 88.71828917 246.09959804 43.25 246.0625 C42.19286678 246.06164398 41.13573357 246.06078796 40.04656601 246.05990601 C27.69768989 246.04911183 15.3488444 246.0300802 3 246 C2.98969254 244.98111694 2.97938507 243.96223389 2.96876526 242.91247559 C2.86956748 233.15088352 2.76674202 223.38933499 2.66066074 213.62781525 C2.60627607 208.61338379 2.55302478 203.59894648 2.50268555 198.58447266 C2.30019534 178.49100704 2.05733376 158.40930137 1.36782837 138.32600403 C0.89621419 124.48696068 0.66335465 110.64631572 0.46757126 96.80122375 C0.43692572 94.64713368 0.40520443 92.49306135 0.37332153 90.33898926 C-0.06815795 60.22533602 -0.11370653 30.11650134 0 0 Z " fill="#D14424" transform="translate(1358,532)"/>
<path d="M0 0 C2.49102579 0.00547533 4.98187914 -0.00006269 7.47290039 -0.00634766 C32.1760354 -0.02066893 51.97395873 4.03842252 70.13110352 22.13037109 C70.69442383 22.67048828 71.25774414 23.21060547 71.83813477 23.76708984 C87.30190498 39.96528714 89.50758871 64.54975792 89.44677734 85.76391602 C89.44361025 88.06298045 89.46722271 90.36076031 89.49243164 92.65966797 C89.59547368 116.45348887 83.24832147 139.10296435 67.13110352 157.13037109 C65.11332849 158.90997374 63.13933301 160.57125675 61.00610352 162.19287109 C60.16329834 162.83748291 60.16329834 162.83748291 59.3034668 163.49511719 C53.74980391 167.61698857 47.23527191 172.13037109 40.13110352 172.13037109 C40.13110352 172.79037109 40.13110352 173.45037109 40.13110352 174.13037109 C39.55102539 174.25154297 38.97094727 174.37271484 38.37329102 174.49755859 C33.26234383 175.58828565 33.26234383 175.58828565 28.31860352 177.25537109 C23.31319806 178.62940396 18.28989729 178.28062722 13.13110352 178.13037109 C13.13110352 178.79037109 13.13110352 179.45037109 13.13110352 180.13037109 C-5.01889648 180.13037109 -23.16889648 180.13037109 -41.86889648 180.13037109 C-41.86889648 121.06037109 -41.86889648 61.99037109 -41.86889648 1.13037109 C-13.87154024 -0.03618542 -13.87154024 -0.03618542 0 0 Z " fill="#D14525" transform="translate(571.868896484375,799.86962890625)"/>
</svg>
