<?xml version="1.0" encoding="UTF-8"?>
<svg version="1.1" xmlns="http://www.w3.org/2000/svg" width="32" height="32">
<path d="M0 0 C0.5775 0.165 1.155 0.33 1.75 0.5 C4.26664369 1.14462031 4.26664369 1.14462031 8 1 C10.65272841 3.00586623 12.77170315 5.53845159 15 8 C15.52722656 8.53625 16.05445312 9.0725 16.59765625 9.625 C20.01356137 13.27878152 20.01356137 13.27878152 19.95703125 16.28515625 C18.64920095 19.99512384 16.33326672 22.49559701 13.6875 25.3125 C13.20087891 25.86228516 12.71425781 26.41207031 12.21289062 26.97851562 C10.76171875 28.55078125 10.76171875 28.55078125 8 31 C6.68 31 5.36 31 4 31 C2.65835921 31.2981424 1.32148827 31.62243192 0 32 C-1.43958847 30.41856529 -2.87658645 28.83477221 -4.3125 27.25 C-5.51326172 25.92742188 -5.51326172 25.92742188 -6.73828125 24.578125 C-7.85783203 23.30195312 -7.85783203 23.30195312 -9 22 C-9.61230469 21.33484375 -10.22460938 20.6696875 -10.85546875 19.984375 C-12 18 -12 18 -12.03515625 15.67578125 C-10.55858088 11.85897321 -8.14177968 9.21588811 -5.4375 6.1875 C-4.91736328 5.59001953 -4.39722656 4.99253906 -3.86132812 4.37695312 C-2.58264738 2.91057613 -1.29244159 1.45426294 0 0 Z " fill="#D97BBC" transform="translate(12,0)"/>
<path d="M0 0 C1.32 0.66 2.64 1.32 4 2 C2.68 3.65 1.36 5.3 0 7 C1.44253657 10.36591866 3.33264727 12.51047079 6 15 C4.55746343 18.36591866 2.66735273 20.51047079 0 23 C1.20381448 25.49361571 2.45428722 27.68143083 4 30 C2.02 30.99 2.02 30.99 0 32 C-1.43958847 30.41856529 -2.87658645 28.83477221 -4.3125 27.25 C-5.51326172 25.92742188 -5.51326172 25.92742188 -6.73828125 24.578125 C-7.85783203 23.30195312 -7.85783203 23.30195312 -9 22 C-9.61230469 21.33484375 -10.22460938 20.6696875 -10.85546875 19.984375 C-12 18 -12 18 -12.03515625 15.67578125 C-10.55858088 11.85897321 -8.14177968 9.21588811 -5.4375 6.1875 C-4.91736328 5.59001953 -4.39722656 4.99253906 -3.86132812 4.37695312 C-2.58264738 2.91057613 -1.29244159 1.45426294 0 0 Z " fill="#902D86" transform="translate(12,0)"/>
<path d="M0 0 C2.65697192 1.32848596 4.21209225 2.616123 6 5 C5.90346814 8.86127424 4.46392937 11.10756118 2 14 C-1.11259604 13.654156 -2.82872813 13.12620033 -5.375 11.25 C-7 9 -7 9 -7 6.5 C-5.6364477 3.09111924 -4.00551592 0 0 0 Z " fill="#E292C5" transform="translate(26,9)"/>
<path d="M0 0 C1.46484375 1.23697917 2.9296875 2.47395833 4.39453125 3.7109375 C5.8655046 4.89201099 7.43037794 5.95358529 9 7 C6.36 9.64 3.72 12.28 1 15 C-3.1424367 13.61918777 -4.32203099 11.40174442 -7 8 C-5.50902342 4.2047869 -3.24299151 2.38957269 0 0 Z " fill="#CD6BB3" transform="translate(18,17)"/>
<path d="M0 0 C1.65 1.65 3.3 3.3 5 5 C3.02 5.99 3.02 5.99 1 7 C-0.0625 5.1875 -0.0625 5.1875 -1 3 C-0.67 2.01 -0.34 1.02 0 0 Z " fill="#72246E" transform="translate(11,25)"/>
</svg>
