<?xml version="1.0" encoding="UTF-8"?>
<svg version="1.1" xmlns="http://www.w3.org/2000/svg" width="137" height="137">
<path d="M0 0 C45.21 0 90.42 0 137 0 C137 45.21 137 90.42 137 137 C91.79 137 46.58 137 0 137 C0 91.79 0 46.58 0 0 Z " fill="#1E2875" transform="translate(0,0)"/>
<path d="M0 0 C1.59253046 0.45593919 3.16186579 0.99192728 4.72265625 1.546875 C4.72265625 5.176875 4.72265625 8.806875 4.72265625 12.546875 C4.06265625 12.546875 3.40265625 12.546875 2.72265625 12.546875 C2.4803125 11.99257813 2.23796875 11.43828125 1.98828125 10.8671875 C1.653125 10.14273438 1.31796875 9.41828125 0.97265625 8.671875 C0.48539063 7.59292969 0.48539063 7.59292969 -0.01171875 6.4921875 C-1.52665477 4.16367473 -2.6973578 3.50698427 -5.27734375 2.546875 C-8.59673055 2.20110554 -10.62500583 2.23787283 -13.65234375 3.671875 C-15.53320852 5.51450252 -15.53320852 5.51450252 -15.77734375 8.484375 C-15.14577652 12.35272427 -14.3549201 13.14579376 -11.27734375 15.546875 C-8.38115406 16.66150271 -5.41692884 17.38616678 -2.40234375 18.109375 C3.00098616 19.44478198 7.80923787 20.82158667 12.72265625 23.546875 C12.39265625 19.256875 12.06265625 14.966875 11.72265625 10.546875 C10.73265625 10.216875 9.74265625 9.886875 8.72265625 9.546875 C8.72265625 8.886875 8.72265625 8.226875 8.72265625 7.546875 C17.63265625 7.546875 26.54265625 7.546875 35.72265625 7.546875 C36.21765625 8.536875 36.21765625 8.536875 36.72265625 9.546875 C35.40265625 9.876875 34.08265625 10.206875 32.72265625 10.546875 C32.39265625 18.796875 32.06265625 27.046875 31.72265625 35.546875 C34.81640625 35.423125 34.81640625 35.423125 37.97265625 35.296875 C39.1328125 35.25046875 40.29296875 35.2040625 41.48828125 35.15625 C45.22617584 34.45200899 46.2786023 33.34968916 48.72265625 30.546875 C49.38265625 30.546875 50.04265625 30.546875 50.72265625 30.546875 C50.39265625 32.856875 50.06265625 35.166875 49.72265625 37.546875 C42.46265625 37.876875 35.20265625 38.206875 27.72265625 38.546875 C28.05265625 39.206875 28.38265625 39.866875 28.72265625 40.546875 C29.43514251 47.91836749 28.82301161 54.43827399 24.28125 60.45703125 C18.33648321 66.95351654 10.66341441 70.18736037 1.96484375 70.8203125 C-7.80429331 71.1414375 -15.58949567 70.78160311 -23.140625 63.83203125 C-27.96949261 58.56522338 -29.73218333 53.88565865 -29.51953125 46.75 C-28.84976815 40.6573163 -25.3955559 37.43082947 -20.8984375 33.74609375 C-16.94554171 30.82190337 -13.03446197 31.00060305 -8.27734375 31.546875 C-2.96721303 33.25802045 0.67517418 35.79280296 3.72265625 40.546875 C4.96482883 44.27339273 5.25678155 47.67629574 4.72265625 51.546875 C2.61478944 55.61204671 0.9467432 57.8402512 -3.27734375 59.546875 C-7.96727326 60.34391132 -11.28336377 60.17571948 -15.33984375 57.609375 C-17.63453183 53.98228739 -17.80254108 51.7334261 -17.74609375 47.53515625 C-17.27734375 45.546875 -17.27734375 45.546875 -14.27734375 43.546875 C-9.73680321 44.08741554 -9.73680321 44.08741554 -8.27734375 45.546875 C-8.08984375 48.484375 -8.08984375 48.484375 -8.27734375 51.546875 C-8.93734375 52.206875 -9.59734375 52.866875 -10.27734375 53.546875 C-11.59734375 53.546875 -12.91734375 53.546875 -14.27734375 53.546875 C-12.04460472 56.2948615 -10.88641958 57.44320252 -7.33984375 58.046875 C-3.60384464 57.43691596 -1.96695878 56.15964389 0.72265625 53.546875 C2.44998261 50.09222228 2.07681307 46.33110622 1.72265625 42.546875 C0.37459601 39.10183217 -0.82861015 37.86427194 -3.83984375 35.734375 C-8.43513296 34.14691145 -12.46550335 33.84270323 -17.27734375 34.546875 C-21.68343118 36.70986337 -24.47609345 38.94367979 -26.27734375 43.546875 C-27.01636987 49.67463321 -26.54376251 54.18994824 -23.27734375 59.546875 C-22.94734375 60.536875 -22.61734375 61.526875 -22.27734375 62.546875 C-20.57965141 63.64856484 -20.57965141 63.64856484 -18.27734375 64.546875 C-17.32859375 65.083125 -16.37984375 65.619375 -15.40234375 66.171875 C-8.71171816 69.00419167 0.32239185 68.66551644 7.16015625 66.421875 C13.57113227 63.44289899 17.50119961 59.7679534 20.16015625 53.171875 C20.67578125 51.645625 21.19140625 50.119375 21.72265625 48.546875 C17.43265625 48.546875 13.14265625 48.546875 8.72265625 48.546875 C8.72265625 47.886875 8.72265625 47.226875 8.72265625 46.546875 C10.04265625 46.546875 11.36265625 46.546875 12.72265625 46.546875 C12.39265625 41.926875 12.06265625 37.306875 11.72265625 32.546875 C4.48932777 28.98114969 -2.53764363 26.41639014 -10.34936523 24.51098633 C-15.21963393 23.2219137 -18.04901013 21.62704426 -21.27734375 17.546875 C-22.08984375 13.734375 -22.08984375 13.734375 -22.27734375 10.546875 C-22.93734375 10.876875 -23.59734375 11.206875 -24.27734375 11.546875 C-24.28350708 12.49941162 -24.28350708 12.49941162 -24.28979492 13.47119141 C-24.32286473 16.37233977 -24.39352121 19.27142514 -24.46484375 22.171875 C-24.47064453 23.17089844 -24.47644531 24.16992188 -24.48242188 25.19921875 C-24.73113996 33.54509243 -24.73113996 33.54509243 -27.640625 37.1953125 C-31.78542055 40.89185609 -35.43649975 40.87877079 -40.76171875 40.83984375 C-44.58327322 40.39478694 -46.39980186 39.05550127 -49.27734375 36.546875 C-50.53572932 34.03010387 -50.48553348 32.13394212 -50.59375 29.3203125 C-50.63564453 28.2890625 -50.67753906 27.2578125 -50.72070312 26.1953125 C-50.76001953 25.11507812 -50.79933594 24.03484375 -50.83984375 22.921875 C-50.88302734 21.83390625 -50.92621094 20.7459375 -50.97070312 19.625 C-51.07698905 16.9324233 -51.17902432 14.23975247 -51.27734375 11.546875 C-52.59734375 10.886875 -53.91734375 10.226875 -55.27734375 9.546875 C-55.27734375 8.886875 -55.27734375 8.226875 -55.27734375 7.546875 C-50.65734375 7.546875 -46.03734375 7.546875 -41.27734375 7.546875 C-41.27734375 8.206875 -41.27734375 8.866875 -41.27734375 9.546875 C-42.59734375 9.876875 -43.91734375 10.206875 -45.27734375 10.546875 C-45.42301782 14.10894222 -45.51153571 17.67024051 -45.58984375 21.234375 C-45.63173828 22.24177734 -45.67363281 23.24917969 -45.71679688 24.28710938 C-45.84834773 30.41945457 -45.84834773 30.41945457 -42.9765625 35.71484375 C-39.40464671 38.13919759 -37.51193452 38.30305192 -33.27734375 37.546875 C-30.3678761 35.75605636 -30.3678761 35.75605636 -28.27734375 32.546875 C-27.66947112 28.9219601 -27.80496983 25.39671756 -27.96484375 21.734375 C-27.98740234 20.75533203 -28.00996094 19.77628906 -28.03320312 18.76757812 C-28.09194648 16.35910045 -28.17402246 13.95378422 -28.27734375 11.546875 C-29.59734375 10.886875 -30.91734375 10.226875 -32.27734375 9.546875 C-32.27734375 8.886875 -32.27734375 8.226875 -32.27734375 7.546875 C-31.54128906 7.53269531 -30.80523437 7.51851562 -30.046875 7.50390625 C-23.6588417 7.27427538 -23.6588417 7.27427538 -18.27734375 4.109375 C-17.61734375 3.26375 -16.95734375 2.418125 -16.27734375 1.546875 C-11.45955526 -1.66498399 -5.59414864 -1.11307246 0 0 Z " fill="#EFEFF5" transform="translate(70.27734375,33.453125)"/>
<path d="M0 0 C4.31657706 2.00846362 7.15375218 4.20063465 9.76953125 8.28125 C11.01170383 12.00776773 11.30365655 15.41067074 10.76953125 19.28125 C8.66166444 23.34642171 6.9936182 25.5746262 2.76953125 27.28125 C-1.92039826 28.07828632 -5.23648877 27.91009448 -9.29296875 25.34375 C-11.58765683 21.71666239 -11.75566608 19.4678011 -11.69921875 15.26953125 C-11.23046875 13.28125 -11.23046875 13.28125 -8.23046875 11.28125 C-3.68992821 11.82179054 -3.68992821 11.82179054 -2.23046875 13.28125 C-2.04296875 16.21875 -2.04296875 16.21875 -2.23046875 19.28125 C-2.89046875 19.94125 -3.55046875 20.60125 -4.23046875 21.28125 C-5.55046875 21.28125 -6.87046875 21.28125 -8.23046875 21.28125 C-5.99772972 24.0292365 -4.83954458 25.17757752 -1.29296875 25.78125 C2.44303036 25.17129096 4.07991622 23.89401889 6.76953125 21.28125 C8.49685761 17.82659728 8.12368807 14.06548122 7.76953125 10.28125 C6.42147101 6.83620717 5.21826485 5.59864694 2.20703125 3.46875 C-2.38825796 1.88128645 -6.41862835 1.57707823 -11.23046875 2.28125 C-15.63655618 4.44423837 -18.42921845 6.67805479 -20.23046875 11.28125 C-20.96949487 17.40900821 -20.49688751 21.92432324 -17.23046875 27.28125 C-16.90046875 28.27125 -16.57046875 29.26125 -16.23046875 30.28125 C-14.53277641 31.38293984 -14.53277641 31.38293984 -12.23046875 32.28125 C-11.24046875 32.796875 -10.25046875 33.3125 -9.23046875 33.84375 C-4.17009202 36.03621082 1.33065167 36.02225573 6.76953125 36.28125 C6.76953125 36.61125 6.76953125 36.94125 6.76953125 37.28125 C-0.76760218 38.58924051 -6.30063742 38.77279225 -13.03515625 34.875 C-17.75035455 31.45186671 -21.85400998 27.06237685 -23.23046875 21.28125 C-23.81659779 15.55849922 -23.58435767 11.14979844 -20.23046875 6.28125 C-14.11224029 0.24799693 -8.70268869 -2.80436904 0 0 Z " fill="#D3D5E4" transform="translate(64.23046875,65.71875)"/>
<path d="M0 0 C4.62 0 9.24 0 14 0 C14 0.66 14 1.32 14 2 C12.68 2.33 11.36 2.66 10 3 C9.85432593 6.56206722 9.76580804 10.12336551 9.6875 13.6875 C9.64560547 14.69490234 9.60371094 15.70230469 9.56054688 16.74023438 C9.42899602 22.87257957 9.42899602 22.87257957 12.30078125 28.16796875 C15.87269704 30.59232259 17.76540923 30.75617692 22 30 C24.63016161 27.8272578 26.47336894 26.05326212 28 23 C28.23274209 20.12089412 28.41972757 17.25853505 28.5625 14.375 C28.60568359 13.57320312 28.64886719 12.77140625 28.69335938 11.9453125 C28.79951457 9.9637489 28.90026855 7.98189729 29 6 C29.33 6 29.66 6 30 6 C30.14622024 9.20784721 30.23436651 12.41482961 30.3125 15.625 C30.35439453 16.52863281 30.39628906 17.43226562 30.43945312 18.36328125 C30.52076351 22.81909025 30.519728 26.00813981 27.66796875 29.5859375 C23.51396309 33.3446132 19.88421148 33.3322128 14.515625 33.29296875 C10.69407053 32.84791194 8.87754189 31.50862627 6 29 C4.74161443 26.48322887 4.79181027 24.58706712 4.68359375 21.7734375 C4.64169922 20.7421875 4.59980469 19.7109375 4.55664062 18.6484375 C4.51732422 17.56820312 4.47800781 16.48796875 4.4375 15.375 C4.39431641 14.28703125 4.35113281 13.1990625 4.30664062 12.078125 C4.2003547 9.3855483 4.09831943 6.69287747 4 4 C2.68 3.34 1.36 2.68 0 2 C0 1.34 0 0.68 0 0 Z " fill="#EEEEF4" transform="translate(15,41)"/>
<path d="M0 0 C3.0625 0.1875 3.0625 0.1875 5.0625 2.1875 C5.28955078 4.52587891 5.28955078 4.52587891 5.2578125 7.4140625 C5.24814453 8.9609375 5.24814453 8.9609375 5.23828125 10.5390625 C5.22152344 11.61929688 5.20476562 12.69953125 5.1875 13.8125 C5.17847656 14.90046875 5.16945313 15.9884375 5.16015625 17.109375 C5.13653409 19.80230152 5.10359556 22.49479255 5.0625 25.1875 C1.23010833 23.36488939 -1.28905161 21.59134775 -3.9375 18.1875 C-4.55138598 15.2414278 -4.45895353 12.43222216 -4.3125 9.4375 C-4.29832031 8.65761719 -4.28414063 7.87773438 -4.26953125 7.07421875 C-4.09179977 0.26117871 -4.09179977 0.26117871 0 0 Z " fill="#202A77" transform="translate(91.9375,42.8125)"/>
<path d="M0 0 C2.375 0.6875 2.375 0.6875 3.375 1.6875 C3.5625 4.625 3.5625 4.625 3.375 7.6875 C2.715 8.3475 2.055 9.0075 1.375 9.6875 C0.055 9.6875 -1.265 9.6875 -2.625 9.6875 C-0.33658556 12.50401009 0.69114695 13.61626531 4.375 14 C6.8245051 13.74484322 9.0273259 13.40986126 11.375 12.6875 C9.7453437 14.63893557 8.80523084 15.59081891 6.2890625 16.15625 C2.1181075 16.21319137 -0.08275235 16.03055464 -3.6875 13.75 C-5.98218808 10.12291239 -6.15019733 7.8740511 -6.09375 3.67578125 C-5.2753892 0.20456751 -3.31602158 -0.39476447 0 0 Z " fill="#F1F1F6" transform="translate(58.625,77.3125)"/>
<path d="M0 0 C6.59950203 -0.5499585 11.50201325 0.14394594 17 4 C21.15442547 8.36747293 22.33435013 11.87219366 22.30078125 17.92578125 C21.80466803 21.34702957 20.13481546 23.33148068 18 26 C17.34 25.34 16.68 24.68 16 24 C16.495 23.525625 16.99 23.05125 17.5 22.5625 C19.72489143 18.76164381 19.55429955 15.30352012 19 11 C17.6509436 7.55241143 16.52048419 6.34275788 13.4375 4.3125 C9.03779575 2.63261292 4.63372896 1.77839321 0 1 C0 0.67 0 0.34 0 0 Z " fill="#C7CADD" transform="translate(53,65)"/>
<path d="M0 0 C3.63 0 7.26 0 11 0 C11 2.64 11 5.28 11 8 C10.67 8 10.34 8 10 8 C10 6.35 10 4.7 10 3 C8.15829162 4.56727453 7.11223768 5.50649641 6.56762695 7.90112305 C6.54144287 8.59761963 6.51525879 9.29411621 6.48828125 10.01171875 C6.45283203 10.76904297 6.41738281 11.52636719 6.38085938 12.30664062 C6.35830078 13.09232422 6.33574219 13.87800781 6.3125 14.6875 C6.27833984 15.48478516 6.24417969 16.28207031 6.20898438 17.10351562 C6.12661896 19.06851904 6.06162933 21.03423696 6 23 C5.67 23 5.34 23 5 23 C4.67 16.73 4.34 10.46 4 4 C2.68 3.34 1.36 2.68 0 2 C0 1.34 0 0.68 0 0 Z " fill="#C8CADD" transform="translate(38,41)"/>
<path d="M0 0 C0.66 0 1.32 0 2 0 C1.67 2.31 1.34 4.62 1 7 C-6.59 7 -14.18 7 -22 7 C-22 6.67 -22 6.34 -22 6 C-20.74703125 5.90203125 -19.4940625 5.8040625 -18.203125 5.703125 C-16.55199768 5.55302252 -14.90096026 5.40192886 -13.25 5.25 C-12.425 5.188125 -11.6 5.12625 -10.75 5.0625 C-5.7210507 4.61128609 -5.7210507 4.61128609 -1.546875 1.921875 C-1.03640625 1.28765625 -0.5259375 0.6534375 0 0 Z " fill="#C4C7DA" transform="translate(119,64)"/>
<path d="M0 0 C0.66 0 1.32 0 2 0 C1.67 1.98 1.34 3.96 1 6 C-1.31 6 -3.62 6 -6 6 C-5.195625 5.38125 -4.39125 4.7625 -3.5625 4.125 C-0.96125481 2.25835959 -0.96125481 2.25835959 0 0 Z " fill="#F4F5F8" transform="translate(119,64)"/>
<path d="M0 0 C1.48280196 0.78483659 2.9611498 1.57809334 4.4375 2.375 C5.67306641 3.03628906 5.67306641 3.03628906 6.93359375 3.7109375 C9 5 9 5 10 7 C5.61537866 6.49890042 3.1999003 5.01704885 0 2 C0 1.34 0 0.68 0 0 Z " fill="#DFE1EC" transform="translate(47,95)"/>
<path d="M0 0 C2.89932357 2.39509338 3.50168276 4.31245243 4 8 C2.68 7.67 1.36 7.34 0 7 C0 4.69 0 2.38 0 0 Z " fill="#212B77" transform="translate(88,72)"/>
</svg>
